<svg width="22" height="22" viewBox="0 0 22 22" fill="none" xmlns="http://www.w3.org/2000/svg">
<path d="M15.7133 13.24C15.4956 12.5867 15.3867 11.9022 15.3867 11.1867V9.41333C15.3867 8.85333 15.2933 8.32444 15.1067 7.82667C14.92 7.29778 14.64 6.83111 14.2667 6.42667C13.8933 5.99111 13.4578 5.64889 12.96 5.4C12.4933 5.12 11.98 4.94889 11.42 4.88667C10.7978 4.82444 10.1911 4.90222 9.6 5.12C9.00889 5.30667 8.48 5.61778 8.01333 6.05333C7.57778 6.45778 7.23556 6.94 6.98667 7.5C6.73778 8.06 6.61333 8.65111 6.61333 9.27333V11.1867C6.61333 11.9022 6.50444 12.5867 6.28667 13.24L5.77333 14.78L6.14667 15.3867H9.22667C9.22667 15.8533 9.39778 16.2578 9.74 16.6C10.0822 16.9422 10.4867 17.1133 10.9533 17.1133C11.4511 17.1133 11.8711 16.9422 12.2133 16.6C12.5556 16.2578 12.7267 15.8533 12.7267 15.3867H15.8067L16.2267 14.78L15.7133 13.24ZM11.6067 15.9933C11.42 16.18 11.2022 16.2733 10.9533 16.2733C10.7356 16.2733 10.5333 16.1956 10.3467 16.04C10.1911 15.8533 10.1133 15.6356 10.1133 15.3867H11.84C11.8711 15.6356 11.7933 15.8378 11.6067 15.9933ZM6.75333 14.5L7.08 13.52C7.36 12.7733 7.5 11.9956 7.5 11.1867V9.27333C7.5 8.77556 7.59333 8.29333 7.78 7.82667C7.99778 7.36 8.27778 6.97111 8.62 6.66C8.99333 6.31778 9.41333 6.06889 9.88 5.91333C10.3778 5.75778 10.86 5.71111 11.3267 5.77333C12.26 5.89778 13.0222 6.30222 13.6133 6.98667C13.8933 7.32889 14.1111 7.71778 14.2667 8.15333C14.4222 8.55778 14.5 8.97778 14.5 9.41333V11.1867C14.5 11.9956 14.6244 12.7889 14.8733 13.5667L15.2 14.5H6.75333Z" fill="white"/>
</svg>
