<svg width="62" height="22" viewBox="0 0 62 22" fill="none" xmlns="http://www.w3.org/2000/svg">
<path d="M5.77333 11.2333L4.7 12.3067L4 11.6533L5.82 9.83333H6.47333L8.34 11.7L7.64 12.3533L6.61333 11.3267C6.70667 12.2911 7.06444 13.1467 7.68667 13.8933C8.34 14.6089 9.13333 15.0756 10.0667 15.2933C11.0311 15.48 11.9489 15.3711 12.82 14.9667C13.7222 14.5622 14.4067 13.9244 14.8733 13.0533L15.5733 13.5667C14.9822 14.5933 14.1422 15.34 13.0533 15.8067C11.9956 16.2733 10.8911 16.3822 9.74 16.1333C8.62 15.8533 7.68667 15.2622 6.94 14.36C6.19333 13.4578 5.80444 12.4156 5.77333 11.2333ZM15.3867 10.8133L14.3133 9.74L13.6133 10.3933L15.4333 12.26H16.1333L17.9533 10.44L17.3 9.78667L16.2267 10.8133C16.1956 9.66222 15.8222 8.63556 15.1067 7.73333C14.3911 6.83111 13.4733 6.24 12.3533 5.96C11.2333 5.64889 10.1289 5.71111 9.04 6.14667C7.98222 6.55111 7.14222 7.25111 6.52 8.24667L7.22 8.76C7.71778 7.92 8.41778 7.31333 9.32 6.94C10.2222 6.56667 11.14 6.50444 12.0733 6.75333C13.0067 7.00222 13.7689 7.5 14.36 8.24667C14.9822 8.99333 15.3244 9.84889 15.3867 10.8133Z" fill="white"/>
<path d="M25.9023 15.2051C27.8711 15.2051 29.0195 13.582 29.0195 10.7812C29.0195 7.97461 27.8535 6.33984 25.9023 6.33984C23.9395 6.33984 22.7734 7.97461 22.7734 10.7637C22.7734 13.5762 23.9277 15.2051 25.9023 15.2051ZM25.9023 14.1152C24.7539 14.1152 24.0977 12.9434 24.0977 10.7637C24.0977 8.61328 24.7656 7.43555 25.9023 7.43555C27.0391 7.43555 27.6953 8.60156 27.6953 10.7637C27.6953 12.9492 27.0508 14.1152 25.9023 14.1152ZM34.5508 6.39258C34.2227 6.39258 33.9941 6.62109 33.9941 6.96094V12.4688L34.0352 13.459L32.7695 12.0352L31.8965 11.1797C31.7969 11.0742 31.6562 11.0156 31.498 11.0156C31.1934 11.0156 30.9648 11.2441 30.9648 11.5547C30.9648 11.707 31.0234 11.8418 31.1406 11.9648L34.1348 14.9707C34.252 15.0879 34.3984 15.1523 34.5508 15.1523C34.709 15.1523 34.8555 15.0879 34.9727 14.9707L37.9668 11.9648C38.0898 11.8418 38.1426 11.707 38.1426 11.5547C38.1426 11.2441 37.9141 11.0156 37.6094 11.0156C37.4512 11.0156 37.3105 11.0742 37.2109 11.1797L36.3379 12.0352L35.0723 13.4531L35.1133 12.4688V6.96094C35.1133 6.62109 34.8848 6.39258 34.5508 6.39258ZM45.543 15H46.8555V6.54492H45.5488L43.3223 8.12695V9.41602L45.4434 7.89844H45.543V15ZM53.1602 15.1523C53.4941 15.1523 53.7227 14.9238 53.7227 14.584V9.07617L53.6816 8.0918L54.9473 9.50977L55.8203 10.3652C55.9199 10.4707 56.0605 10.5293 56.2188 10.5293C56.5234 10.5293 56.752 10.3008 56.752 9.99023C56.752 9.83789 56.6992 9.70312 56.5762 9.58008L53.582 6.57422C53.4648 6.45703 53.3184 6.39258 53.1602 6.39258C53.0078 6.39258 52.8613 6.45703 52.7441 6.57422L49.75 9.58008C49.6328 9.70312 49.5742 9.83789 49.5742 9.99023C49.5742 10.3008 49.8027 10.5293 50.1074 10.5293C50.2656 10.5293 50.4062 10.4707 50.5059 10.3652L51.3789 9.50977L52.6445 8.08594L52.6035 9.07617V14.584C52.6035 14.9238 52.832 15.1523 53.1602 15.1523Z" fill="white"/>
</svg>
