<svg width="71" height="22" viewBox="0 0 71 22" fill="none" xmlns="http://www.w3.org/2000/svg">
<path d="M8.51758 15V7.67578H11.1719V6.54492H4.54492V7.67578H7.20508V15H8.51758ZM12.6367 17.3086C13.9375 17.3086 14.541 16.8223 15.0859 15.293L17.4648 8.63672H16.1289L14.5352 13.7344H14.4355L12.8359 8.63672H11.4648L13.7734 15.0176L13.6797 15.3457C13.4629 16.0195 13.123 16.2715 12.5254 16.2715C12.4082 16.2715 12.2148 16.2656 12.1152 16.248V17.2793C12.2324 17.2969 12.5312 17.3086 12.6367 17.3086ZM22.0645 8.52539C21.1973 8.52539 20.4473 8.96484 20.0605 9.69141H19.9668V8.63672H18.7539V17.1211H20.0137V14.0391H20.1133C20.4473 14.7129 21.168 15.1055 22.0762 15.1055C23.6875 15.1055 24.7129 13.8281 24.7129 11.8184C24.7129 9.79688 23.6875 8.52539 22.0645 8.52539ZM21.707 14.0273C20.6523 14.0273 19.9902 13.1777 19.9902 11.8184C19.9902 10.4531 20.6523 9.60352 21.7129 9.60352C22.7793 9.60352 23.418 10.4355 23.418 11.8184C23.418 13.2012 22.7793 14.0273 21.707 14.0273ZM30.4141 13.2949C30.1797 13.8105 29.6582 14.0918 28.8965 14.0918C27.8887 14.0918 27.2383 13.3652 27.1973 12.2109V12.1523H31.7031V11.7188C31.7031 9.72656 30.6309 8.51367 28.8555 8.51367C27.0566 8.51367 25.9141 9.80859 25.9141 11.8301C25.9141 13.8633 27.0332 15.123 28.8613 15.123C30.3203 15.123 31.3516 14.4199 31.627 13.2949H30.4141ZM28.8496 9.53906C29.7812 9.53906 30.3906 10.2129 30.4199 11.2441H27.1973C27.2676 10.2188 27.918 9.53906 28.8496 9.53906ZM32.9629 12.7441C33.0566 14.2441 34.3164 15.2051 36.1914 15.2051C38.1953 15.2051 39.4492 14.1973 39.4492 12.5977C39.4492 11.332 38.7344 10.6348 37 10.2188L36.0684 9.99023C34.9668 9.7207 34.5215 9.36914 34.5215 8.75391C34.5215 7.96289 35.2129 7.45312 36.25 7.45312C37.2344 7.45312 37.9141 7.94531 38.0371 8.74805H39.3145C39.2383 7.33594 37.9844 6.33984 36.2676 6.33984C34.4219 6.33984 33.1914 7.33594 33.1914 8.82422C33.1914 10.0547 33.8887 10.7812 35.418 11.1504L36.5078 11.4141C37.627 11.6836 38.1191 12.0938 38.1191 12.7559C38.1191 13.5293 37.3457 14.0859 36.291 14.0859C35.1602 14.0859 34.375 13.5645 34.2637 12.7441H32.9629ZM46.4336 10.6816C46.2695 9.44531 45.3027 8.51367 43.7031 8.51367C41.8457 8.51367 40.7148 9.77344 40.7148 11.7949C40.7148 13.8574 41.8516 15.123 43.709 15.123C45.2852 15.123 46.2695 14.2383 46.4336 12.9844H45.209C45.0449 13.6758 44.5 14.0508 43.7031 14.0508C42.6543 14.0508 42.0039 13.2012 42.0039 11.7949C42.0039 10.418 42.6484 9.58594 43.7031 9.58594C44.5469 9.58594 45.0625 10.0605 45.209 10.6816H46.4336ZM47.875 15H49.1348V11.1973C49.1348 10.3008 49.8086 9.68555 50.7637 9.68555C50.9863 9.68555 51.3613 9.72656 51.4668 9.75586V8.57227C51.332 8.54297 51.0918 8.52539 50.9043 8.52539C50.0723 8.52539 49.3633 8.97656 49.1816 9.60352H49.0879V8.63672H47.875V15ZM53.3301 7.5C53.7695 7.5 54.127 7.14258 54.127 6.70898C54.127 6.26953 53.7695 5.91211 53.3301 5.91211C52.8906 5.91211 52.5332 6.26953 52.5332 6.70898C52.5332 7.14258 52.8906 7.5 53.3301 7.5ZM52.7031 15H53.957V8.63672H52.7031V15ZM59.1191 8.52539C58.252 8.52539 57.502 8.96484 57.1152 9.69141H57.0215V8.63672H55.8086V17.1211H57.0684V14.0391H57.168C57.502 14.7129 58.2227 15.1055 59.1309 15.1055C60.7422 15.1055 61.7676 13.8281 61.7676 11.8184C61.7676 9.79688 60.7422 8.52539 59.1191 8.52539ZM58.7617 14.0273C57.707 14.0273 57.0449 13.1777 57.0449 11.8184C57.0449 10.4531 57.707 9.60352 58.7676 9.60352C59.834 9.60352 60.4727 10.4355 60.4727 11.8184C60.4727 13.2012 59.834 14.0273 58.7617 14.0273ZM63.7305 7.03125V8.6543H62.7168V9.66211H63.7305V13.3242C63.7305 14.5488 64.2871 15.041 65.6875 15.041C65.9336 15.041 66.168 15.0117 66.373 14.9766V13.9746C66.1973 13.9922 66.0859 14.0039 65.8926 14.0039C65.2656 14.0039 64.9902 13.7051 64.9902 13.0195V9.66211H66.373V8.6543H64.9902V7.03125H63.7305Z" fill="white"/>
</svg>
