<svg width="46" height="22" viewBox="0 0 46 22" fill="none" xmlns="http://www.w3.org/2000/svg">
<path d="M6.36133 6.54492H5.04883V12.0879C5.04883 13.916 6.35547 15.2051 8.4707 15.2051C10.5977 15.2051 11.8984 13.916 11.8984 12.0879V6.54492H10.5859V11.9824C10.5859 13.1895 9.81836 14.0391 8.4707 14.0391C7.12891 14.0391 6.36133 13.1895 6.36133 11.9824V6.54492ZM17.4707 15V7.67578H20.125V6.54492H13.498V7.67578H16.1582V15H17.4707ZM23.0488 15V11.4609H26.6816V10.3535H23.0488V7.67578H27.0156V6.54492H21.7363V15H23.0488ZM32.4414 12.1758V11.0098H28.5977V12.1758H32.4414ZM37.3281 15.2051C39.209 15.2051 40.5098 14.1914 40.5098 12.7324C40.5098 11.6426 39.7949 10.7871 38.7109 10.582V10.4824C39.6016 10.2539 40.1641 9.5332 40.1641 8.61328C40.1641 7.2832 38.9863 6.33984 37.3281 6.33984C35.6699 6.33984 34.4922 7.2832 34.4922 8.61328C34.4922 9.52734 35.0664 10.2598 35.9453 10.4824V10.582C34.8613 10.7988 34.1523 11.6543 34.1523 12.7383C34.1523 14.1973 35.4473 15.2051 37.3281 15.2051ZM37.3281 10.0781C36.4082 10.0781 35.7871 9.53906 35.7871 8.73633C35.7871 7.92188 36.4023 7.37695 37.3281 7.37695C38.2539 7.37695 38.875 7.92188 38.875 8.73633C38.875 9.53906 38.248 10.0781 37.3281 10.0781ZM37.3281 14.1621C36.2441 14.1621 35.4941 13.5352 35.4941 12.6328C35.4941 11.7305 36.2441 11.1094 37.3281 11.1094C38.4121 11.1094 39.1621 11.7305 39.1621 12.6328C39.1621 13.5352 38.4121 14.1621 37.3281 14.1621Z" fill="white"/>
</svg>
