<svg width="64" height="22" viewBox="0 0 64 22" fill="none" xmlns="http://www.w3.org/2000/svg">
<path d="M11.5133 4.88667C12.1978 4.91778 12.8511 5.08889 13.4733 5.4C14.1267 5.71111 14.7022 6.11556 15.2 6.61333C16.3822 7.88889 16.9733 9.38222 16.9733 11.0933C16.9733 12.4311 16.5067 13.7067 15.5733 14.92C15.1067 15.48 14.5778 15.9467 13.9867 16.32C13.3956 16.6622 12.7578 16.8956 12.0733 17.02C10.58 17.3 9.22667 17.0978 8.01333 16.4133C7.39111 16.0711 6.84667 15.6356 6.38 15.1067C5.91333 14.5778 5.55556 13.9867 5.30667 13.3333C5.05778 12.68 4.90222 11.9956 4.84 11.28C4.80889 10.5644 4.90222 9.88 5.12 9.22667C5.58667 7.79556 6.41111 6.69111 7.59333 5.91333C8.15333 5.54 8.76 5.26 9.41333 5.07333C10.0978 4.88667 10.7978 4.82444 11.5133 4.88667ZM11.98 16.18C13.1622 15.9 14.1422 15.2778 14.92 14.3133C15.6978 13.2556 16.0556 12.1511 15.9933 11C15.9933 10.2844 15.8533 9.6 15.5733 8.94667C15.3244 8.29333 14.9667 7.71778 14.5 7.22C13.5978 6.31778 12.5556 5.82 11.3733 5.72667C10.7822 5.69556 10.1911 5.75778 9.6 5.91333C9.00889 6.03778 8.48 6.27111 8.01333 6.61333C7.01778 7.36 6.33333 8.34 5.96 9.55333C5.61778 10.7667 5.69556 11.9333 6.19333 13.0533C6.72222 14.1733 7.51556 15.0289 8.57333 15.62C9.07111 15.9311 9.61556 16.1333 10.2067 16.2267C10.7978 16.32 11.3889 16.3044 11.98 16.18ZM10.9067 10.58L13.0067 8.38667L13.6133 8.99333L11.5133 11.1867L13.6133 13.38L13.0067 13.9867L10.9067 11.7933L8.80667 13.9867L8.2 13.38L10.3 11.1867L8.2 8.99333L8.80667 8.38667L10.9067 10.58Z" fill="white"/>
<path d="M25.9023 15.2051C27.8711 15.2051 29.0195 13.582 29.0195 10.7812C29.0195 7.97461 27.8535 6.33984 25.9023 6.33984C23.9395 6.33984 22.7734 7.97461 22.7734 10.7637C22.7734 13.5762 23.9277 15.2051 25.9023 15.2051ZM25.9023 14.1152C24.7539 14.1152 24.0977 12.9434 24.0977 10.7637C24.0977 8.61328 24.7656 7.43555 25.9023 7.43555C27.0391 7.43555 27.6953 8.60156 27.6953 10.7637C27.6953 12.9492 27.0508 14.1152 25.9023 14.1152Z" fill="white"/>
<path d="M40.6267 4.88667H41.3733L47.1133 15.62L46.74 16.2267H35.26L34.8867 15.62L40.6267 4.88667ZM41 6.00667L36.0067 15.3867H45.9933L41 6.00667ZM41.56 14.5V13.6133H40.44V14.5H41.56ZM40.44 12.7267V9.22667H41.56V12.7267H40.44Z" fill="white"/>
<path d="M55.9023 15.2051C57.8711 15.2051 59.0195 13.582 59.0195 10.7812C59.0195 7.97461 57.8535 6.33984 55.9023 6.33984C53.9395 6.33984 52.7734 7.97461 52.7734 10.7637C52.7734 13.5762 53.9277 15.2051 55.9023 15.2051ZM55.9023 14.1152C54.7539 14.1152 54.0977 12.9434 54.0977 10.7637C54.0977 8.61328 54.7656 7.43555 55.9023 7.43555C57.0391 7.43555 57.6953 8.60156 57.6953 10.7637C57.6953 12.9492 57.0508 14.1152 55.9023 14.1152Z" fill="white"/>
</svg>
