<svg width="22" height="22" viewBox="0 0 22 22" fill="none" xmlns="http://www.w3.org/2000/svg">
<path d="M10.6267 12.82C11 12.9756 11.3578 13.1933 11.7 13.4733C12.0422 13.7222 12.3222 14.0178 12.54 14.36C13.0378 15.0756 13.2867 15.8689 13.2867 16.74V17.1133H12.54V16.74C12.54 16.2733 12.4467 15.8378 12.26 15.4333C12.1044 14.9978 11.8556 14.6244 11.5133 14.3133C11.2022 14.0022 10.8289 13.7533 10.3933 13.5667C9.98889 13.38 9.55333 13.2867 9.08667 13.2867C8.62 13.2867 8.16889 13.38 7.73333 13.5667C7.32889 13.7222 6.97111 13.9711 6.66 14.3133C6.34889 14.6244 6.1 14.9978 5.91333 15.4333C5.72667 15.8378 5.63333 16.2733 5.63333 16.74V17.1133H4.88667V16.74C4.88667 15.8689 5.13556 15.0756 5.63333 14.36C6.13111 13.6444 6.76889 13.1311 7.54667 12.82C7.39111 12.6956 7.23556 12.5556 7.08 12.4C6.92444 12.2444 6.8 12.0733 6.70667 11.8867C6.61333 11.6689 6.53556 11.4667 6.47333 11.28C6.44222 11.0622 6.42667 10.8444 6.42667 10.6267C6.42667 10.2533 6.48889 9.89556 6.61333 9.55333C6.89333 8.9 7.37556 8.43333 8.06 8.15333C8.37111 7.99778 8.71333 7.92 9.08667 7.92C9.46 7.92 9.80222 7.99778 10.1133 8.15333C10.7978 8.43333 11.28 8.9 11.56 9.55333C11.7778 10.1133 11.8244 10.6889 11.7 11.28C11.6378 11.4667 11.5444 11.6533 11.42 11.84C11.3267 12.0267 11.2178 12.2133 11.0933 12.4C10.9689 12.5556 10.8133 12.6956 10.6267 12.82ZM9.08667 12.54C9.33556 12.54 9.58444 12.4933 9.83333 12.4C10.3 12.1822 10.6422 11.84 10.86 11.3733C10.9533 11.1244 11 10.8756 11 10.6267C11 10.0978 10.8133 9.64667 10.44 9.27333C10.2533 9.08667 10.0356 8.94667 9.78667 8.85333C9.56889 8.76 9.33556 8.71333 9.08667 8.71333C8.83778 8.71333 8.58889 8.76 8.34 8.85333C7.87333 9.07111 7.53111 9.41333 7.31333 9.88C7.22 10.0978 7.17333 10.3467 7.17333 10.6267C7.17333 10.8756 7.22 11.1244 7.31333 11.3733C7.40667 11.5911 7.54667 11.7933 7.73333 11.98C8.10667 12.3533 8.55778 12.54 9.08667 12.54ZM17.1133 4.88667V11H15.5733L13.2867 13.2867V11H12.54V10.2533H14.08V11.4667L15.2933 10.2533H16.3667V5.63333H8.71333V7.03333L8.34 7.08C8.18444 7.11111 8.04444 7.14222 7.92 7.17333V4.88667H17.1133Z" fill="white"/>
</svg>
